<svg width="499" height="159" viewBox="0 0 499 159" fill="none" xmlns="http://www.w3.org/2000/svg">
<path d="M261 93L262.791 92.1094L261 93ZM450 93L451.773 93.9245L455.323 87.1153L448.903 91.3278L450 93ZM499 140L476.063 137.311L485.203 158.519L499 140ZM0.824322 3.61796C37.1511 30.0146 68.7431 43.1057 96.4531 49.3187C124.151 55.529 147.875 54.8432 168.351 53.81C188.954 52.7704 205.892 51.4319 220.641 56.0116C235.159 60.5195 247.758 70.8653 259.209 93.8906L262.791 92.1094C250.992 68.3847 237.653 57.1055 221.827 52.1915C206.233 47.3493 188.421 48.7921 168.149 49.815C147.75 50.8443 124.474 51.5023 97.3282 45.4156C70.1944 39.3318 39.0989 26.4854 3.17568 0.382044L0.824322 3.61796ZM259.209 93.8906C268.731 113.037 282.61 124.689 298.84 130.81C315.014 136.911 333.394 137.474 351.932 134.716C388.981 129.204 427.207 110.348 451.097 94.6722L448.903 91.3278C425.293 106.819 387.619 125.363 351.343 130.759C333.219 133.456 315.58 132.849 300.251 127.068C284.978 121.307 271.869 110.363 262.791 92.1094L259.209 93.8906ZM448.227 92.0755C444.411 99.3948 440.759 107.92 438.376 116.259C436.006 124.551 434.828 132.877 436.181 139.697C436.864 143.137 438.204 146.262 440.424 148.789C442.656 151.329 445.683 153.154 449.548 154.124C457.176 156.039 468.103 154.638 483.177 148.994L481.775 145.248C466.927 150.807 456.948 151.857 450.522 150.244C447.359 149.45 445.07 148.016 443.429 146.148C441.776 144.267 440.684 141.837 440.105 138.919C438.935 133.023 439.917 125.425 442.222 117.358C444.514 109.337 448.051 101.065 451.773 93.9245L448.227 92.0755Z" fill="black" fill-opacity="0.47"/>
</svg>
