<svg width="527" height="166" viewBox="0 0 527 166" fill="none" xmlns="http://www.w3.org/2000/svg">
<path d="M312 159.5L311.321 161.381L311.376 161.401L311.431 161.417L312 159.5ZM0.885813 78.8391C-0.0314765 79.4545 -0.276248 80.6969 0.3391 81.6142L10.3668 96.5623C10.9821 97.4796 12.2246 97.7243 13.1419 97.109C14.0592 96.4936 14.3039 95.2512 13.6886 94.3339L4.77509 81.0467L18.0623 72.1332C18.9796 71.5179 19.2243 70.2754 18.609 69.3581C17.9936 68.4408 16.7512 68.1961 15.8339 68.8114L0.885813 78.8391ZM522.74 0.0507014C505.645 31.75 474.546 77.6786 436.87 112.404C399.101 147.215 355.296 170.264 312.569 157.583L311.431 161.417C356.304 174.736 401.582 150.368 439.58 115.346C477.671 80.2381 509.021 33.9166 526.26 1.9493L522.74 0.0507014ZM312.679 157.619C224.92 125.962 69.2184 91.7041 2.38658 78.5377L1.61342 82.4623C68.4483 95.6292 223.88 129.838 311.321 161.381L312.679 157.619Z" fill="black" fill-opacity="0.47"/>
</svg>
